<svg version="1.1" id="Layer_1" xmlns="http://www.w3.org/2000/svg" xmlns:xlink="http://www.w3.org/1999/xlink" x="0px" y="0px"
	 width="100%" viewBox="0 0 200 200" enable-background="new 0 0 200 200" xml:space="preserve">
<path fill="#FEFEFE" opacity="1.000000" stroke="none" 
	d="
M1.000000,82.000000 
	C1.000000,54.666672 1.000000,27.833345 1.000000,1.000014 
	C67.666649,1.000010 134.333298,1.000010 200.999954,1.000005 
	C200.999969,67.666626 200.999969,134.333252 200.999985,200.999908 
	C134.333389,200.999939 67.666779,200.999939 1.000081,200.999969 
	C1.000000,161.500000 1.000000,122.000000 1.000000,82.000000 
M131.991440,65.101486 
	C131.991440,65.101486 131.971481,65.084991 131.956909,64.347885 
	C127.522209,55.064888 122.883812,45.871101 118.758896,36.452435 
	C117.233078,32.968445 116.375153,28.986723 116.155792,25.177683 
	C115.669945,16.741495 108.708954,10.293536 100.215141,11.046909 
	C92.200668,11.757767 86.440300,19.559664 87.493317,27.698284 
	C87.807823,30.129028 87.398750,32.963856 86.398209,35.200695 
	C81.996536,45.041252 77.257187,54.730770 71.772491,64.665710 
	C68.944160,64.690712 66.090370,64.965836 63.293560,64.681183 
	C59.257530,64.270409 57.191345,65.552528 55.743561,69.662804 
	C51.887554,80.610054 47.386982,91.330261 42.578426,101.744102 
	C37.552769,96.795998 32.527107,91.847893 28.020153,87.410492 
	C22.538261,92.593346 17.512150,97.345291 13.455383,101.180763 
	C20.548819,108.882385 27.608374,116.547218 34.655430,125.006378 
	C33.334610,128.807648 32.013786,132.608917 30.602036,136.671875 
	C33.302845,136.827530 35.281189,136.941559 37.093185,137.766098 
	C34.602200,143.199280 32.111214,148.632462 29.105282,155.188797 
	C38.305149,150.496887 41.770302,146.585281 46.490208,136.943298 
	C46.865723,137.007050 47.241238,137.070801 47.946129,137.753235 
	C65.571396,155.335617 83.196663,172.917999 101.254410,190.931824 
	C119.440254,172.643906 137.254944,154.729218 155.823212,136.850082 
	C156.822281,136.937317 157.821350,137.024567 158.976288,137.819885 
	C161.026550,146.102280 167.728790,150.151672 173.810806,154.765442 
	C174.230652,154.539291 174.650482,154.313141 175.070328,154.087006 
	C172.427444,148.427338 169.784576,142.767685 168.025284,136.929749 
	C171.565353,136.929749 175.105423,136.929749 179.385498,136.929749 
	C175.808182,131.467346 172.764297,126.819450 170.295685,121.754425 
	C176.780869,115.198853 183.266037,108.643288 188.830460,103.018471 
	C183.630234,97.669197 178.733292,92.631874 173.856689,87.615501 
	C168.266968,92.813393 162.340729,98.324226 155.935532,103.124306 
	C153.151337,100.470680 153.426819,98.163399 155.828781,95.074463 
	C163.378891,85.365059 170.555283,75.365067 178.420181,64.743149 
	C170.219330,64.743149 162.779922,64.630104 155.351471,64.864243 
	C154.228851,64.899635 152.928162,66.380814 152.101242,67.486061 
	C148.323608,72.535164 144.685501,77.688652 140.577469,82.155159 
	C137.709946,76.477402 134.842407,70.799644 131.991440,65.101486 
z"/>
<path fill="#143D53" opacity="1.000000" stroke="none" 
	d="
M158.820419,137.111801 
	C157.821350,137.024567 156.822281,136.937317 155.327057,136.565063 
	C154.523132,136.047028 154.215378,135.814011 153.856705,135.274689 
	C150.556580,130.189301 147.307358,125.410248 144.002716,120.346474 
	C143.551468,119.632812 143.155655,119.203857 142.668457,118.465469 
	C139.291824,113.186966 136.006561,108.217888 132.038589,102.216187 
	C132.038589,112.110626 132.038589,120.501595 131.961090,129.270554 
	C131.926758,130.413406 131.969940,131.178284 131.927368,132.348541 
	C132.594070,136.923950 129.804596,137.057648 126.531738,137.003418 
	C125.370758,136.994904 124.592972,137.060150 123.372192,137.030304 
	C119.186142,136.935181 115.443069,136.935181 111.375099,136.935181 
	C111.375099,113.204155 111.351921,90.290733 111.461716,67.377953 
	C111.466011,66.481842 112.742416,65.591820 113.773300,64.750412 
	C114.805489,64.679008 115.490440,64.556152 116.611549,64.549454 
	C121.067406,64.635277 125.087112,64.604950 129.459015,64.667099 
	C130.531311,64.868057 131.251389,64.976524 131.971481,65.084991 
	C131.971481,65.084991 131.991440,65.101486 131.948563,65.567047 
	C131.976379,71.743942 132.047073,77.455284 131.992157,83.599533 
	C131.866547,87.669090 131.866547,91.305733 131.866547,94.942383 
	C132.227188,95.007881 132.587830,95.073380 132.948471,95.138878 
	C134.005234,93.362259 135.062012,91.585640 136.372406,89.628136 
	C138.083099,87.233047 139.540176,85.018845 140.997269,82.804642 
	C144.685501,77.688652 148.323608,72.535164 152.101242,67.486061 
	C152.928162,66.380814 154.228851,64.899635 155.351471,64.864243 
	C162.779922,64.630104 170.219330,64.743149 178.420181,64.743149 
	C170.555283,75.365067 163.378891,85.365059 155.828781,95.074463 
	C153.426819,98.163399 153.151337,100.470680 156.233215,103.649048 
	C157.095001,104.597206 157.659073,105.020630 158.256134,105.792923 
	C161.580994,110.850655 164.872849,115.559517 168.228973,120.513245 
	C168.768967,121.229256 169.244675,121.700401 169.720398,122.171547 
	C172.764297,126.819450 175.808182,131.467346 179.385498,136.929749 
	C175.105423,136.929749 171.565353,136.929749 167.222900,136.946625 
	C165.935608,137.015594 165.450684,137.067673 164.579102,137.025055 
	C163.139206,136.991287 162.085983,137.052246 160.666595,137.041000 
	C159.807098,137.016479 159.313766,137.064148 158.820419,137.111801 
z"/>
<path fill="#133B52" opacity="1.000000" stroke="none" 
	d="
M43.142681,102.140739 
	C47.386982,91.330261 51.887554,80.610054 55.743561,69.662804 
	C57.191345,65.552528 59.257530,64.270409 63.293560,64.681183 
	C66.090370,64.965836 68.944160,64.690712 72.599289,64.673355 
	C73.960800,64.628670 74.495529,64.576340 75.415222,64.614319 
	C80.466919,64.528992 79.256607,69.133934 81.119949,71.525948 
	C81.461983,72.486702 81.801155,73.162498 82.137901,74.224174 
	C89.908279,95.161186 97.681084,115.712318 105.677017,136.853409 
	C98.836304,136.853409 92.882210,137.001740 86.948090,136.723816 
	C85.809677,136.670502 84.228218,135.154434 83.736427,133.951324 
	C79.938286,124.659660 80.005707,124.622147 70.035522,124.731773 
	C68.716484,124.746277 67.399216,124.922501 65.705475,124.938751 
	C64.565948,124.897842 63.802082,124.942017 62.601173,124.891914 
	C56.674717,123.576469 53.551483,125.679184 52.835163,131.329987 
	C52.674088,132.600693 52.184246,133.829712 51.579781,135.305145 
	C50.081459,136.066422 48.849102,136.600479 47.616753,137.134552 
	C47.241238,137.070801 46.865723,137.007050 45.882153,136.932495 
	C44.593990,136.968674 43.913887,137.015640 42.832191,136.978378 
	C41.374058,136.990738 40.317513,137.087326 38.933552,137.082703 
	C38.157269,137.006210 37.708401,137.030899 37.259533,137.055573 
	C35.281189,136.941559 33.302845,136.827530 30.602036,136.671875 
	C32.013786,132.608917 33.334610,128.807648 34.840218,124.415878 
	C35.149624,123.327728 35.274246,122.830086 35.632812,122.081009 
	C38.028851,115.970474 40.190945,110.111359 42.557087,104.042191 
	C42.888313,103.268341 43.015499,102.704544 43.142681,102.140739 
M61.608948,105.302071 
	C61.380962,106.383881 61.152973,107.465683 60.922031,108.561508 
	C65.763916,108.561508 70.289116,108.561508 75.302132,108.561508 
	C73.030518,101.744904 70.920784,95.414055 68.417046,87.900902 
	C65.862610,94.386734 63.868446,99.449982 61.608948,105.302071 
z"/>
<path fill="#E07352" opacity="1.000000" stroke="none" 
	d="
M47.781441,137.443878 
	C48.849102,136.600479 50.081459,136.066422 51.919136,135.180756 
	C53.510147,134.619339 54.495834,134.409531 56.863552,133.905533 
	C54.806686,136.477966 53.807201,137.727966 52.637802,139.190491 
	C54.332386,141.050339 55.839790,142.704742 57.281734,144.287323 
	C60.159344,142.117462 62.430000,140.405289 64.700661,138.693100 
	C65.079704,139.139343 65.458755,139.585571 65.837799,140.031799 
	C63.919247,142.154541 62.000694,144.277267 59.868206,146.636703 
	C61.664143,148.325592 63.286400,149.851166 64.818504,151.291946 
	C66.671013,149.983490 68.001862,149.043503 69.332710,148.103500 
	C69.649292,148.427948 69.965881,148.752380 70.282471,149.076813 
	C69.387589,150.669159 68.492714,152.261505 67.450500,154.116028 
	C69.087997,155.678680 70.595123,157.116928 72.042427,158.498077 
	C74.656685,156.609528 76.837692,155.033951 79.018707,153.458374 
	C79.355927,153.871216 79.693153,154.284042 80.030380,154.696884 
	C78.273560,156.754211 76.516739,158.811554 74.362213,161.334625 
	C76.157837,163.108871 77.760490,164.692459 79.281624,166.195480 
	C81.318695,164.975739 82.848175,164.059937 84.377647,163.144135 
	C84.665489,163.463089 84.953339,163.782059 85.241180,164.101013 
	C84.250763,165.620132 83.260345,167.139252 82.741013,167.935822 
	C84.127228,169.966675 85.332512,171.732468 86.565392,173.538696 
	C89.373344,171.358780 91.632988,169.604523 93.892624,167.850281 
	C94.259865,168.254730 94.627106,168.659180 94.994347,169.063614 
	C93.205139,171.254517 91.415932,173.445419 89.345009,175.981277 
	C91.152107,177.669678 92.761658,179.173508 94.242233,180.556839 
	C96.194809,179.448883 97.615059,178.642990 99.035301,177.837097 
	C99.300865,178.158554 99.566429,178.480011 99.831985,178.801468 
	C98.870087,180.343628 97.908188,181.885803 96.837677,183.602112 
	C98.327179,184.951660 99.627983,186.130234 100.805702,187.197281 
	C102.933182,185.473663 104.681595,184.057159 106.101822,182.906540 
	C105.027504,180.630768 104.353836,179.203720 103.680176,177.776688 
	C104.000999,177.569122 104.321823,177.361542 104.642647,177.153961 
	C105.950928,178.033951 107.259209,178.913940 108.816605,179.961487 
	C110.425278,178.234634 111.946304,176.601868 113.412720,175.027710 
	C111.320915,172.476730 109.643234,170.430756 107.965546,168.384796 
	C108.446449,167.939896 108.927353,167.494980 109.408257,167.050064 
	C111.614273,168.798386 113.820282,170.546707 116.273460,172.490921 
	C118.033211,170.833206 119.574272,169.381500 120.924492,168.109573 
	C119.667755,166.035690 118.760109,164.537903 117.852470,163.040115 
	C118.193481,162.771469 118.534492,162.502823 118.875504,162.234177 
	C120.310333,163.158646 121.745155,164.083115 123.455032,165.184784 
	C125.154396,163.608337 126.808319,162.074036 128.506104,160.499023 
	C126.411964,157.802246 124.742485,155.652344 123.073006,153.502426 
	C123.462700,153.127335 123.852394,152.752228 124.242081,152.377136 
	C126.326584,154.042053 128.411087,155.706970 131.080795,157.839310 
	C132.799988,156.277191 134.442429,154.784805 135.643448,153.693512 
	C134.383011,150.961395 133.673233,149.422913 132.963455,147.884415 
	C133.301300,147.686920 133.639130,147.489426 133.976974,147.291916 
	C135.405273,148.253983 136.833557,149.216034 137.999420,150.001328 
	C139.922028,148.479446 141.570618,147.174469 143.121628,145.946732 
	C140.922684,143.197754 139.219147,141.068115 137.515625,138.938492 
	C137.946045,138.554489 138.376450,138.170502 138.806870,137.786499 
	C140.969360,139.580551 143.131851,141.374603 145.172058,143.067215 
	C147.153656,141.400513 148.778564,140.033813 150.306946,138.748306 
	C149.062302,136.658600 148.163773,135.150040 146.521072,132.392044 
	C149.977829,133.884415 151.942719,134.732697 153.907608,135.580994 
	C154.215378,135.814011 154.523132,136.047028 154.950287,136.547287 
	C137.254944,154.729218 119.440254,172.643906 101.254410,190.931824 
	C83.196663,172.917999 65.571396,155.335617 47.781441,137.443878 
z"/>
<path fill="#D96A5F" opacity="1.000000" stroke="none" 
	d="
M75.030251,64.524002 
	C74.495529,64.576340 73.960800,64.628670 73.033142,64.578011 
	C77.257187,54.730770 81.996536,45.041252 86.398209,35.200695 
	C87.398750,32.963856 87.807823,30.129028 87.493317,27.698284 
	C86.440300,19.559664 92.200668,11.757767 100.215141,11.046909 
	C108.708954,10.293536 115.669945,16.741495 116.155792,25.177683 
	C116.375153,28.986723 117.233078,32.968445 118.758896,36.452435 
	C122.883812,45.871101 127.522209,55.064888 131.964203,64.716438 
	C131.251389,64.976524 130.531311,64.868057 129.414276,64.319748 
	C124.411316,53.952003 119.805321,44.024086 115.309013,34.332596 
	C111.026550,36.959396 107.574806,39.076645 103.845322,41.364258 
	C107.947815,49.039856 112.061607,56.736576 116.175392,64.433296 
	C115.490440,64.556152 114.805489,64.679008 113.707153,64.387650 
	C109.796745,57.323269 106.299721,50.673100 102.333290,43.130283 
	C96.929459,52.861965 92.233330,61.612892 87.184708,70.155502 
	C86.211739,71.801811 83.857422,72.631752 82.140335,73.838303 
	C81.801155,73.162498 81.461983,72.486702 81.494339,71.483147 
	C82.980003,70.616364 84.616119,70.378212 85.127182,69.491577 
	C90.018944,61.004959 94.784485,52.442608 99.369385,43.787113 
	C99.788620,42.995667 99.075127,40.822414 98.247253,40.293903 
	C95.384834,38.466557 92.239052,37.083073 89.014908,35.435448 
	C88.608002,36.110924 88.127052,36.774132 87.782463,37.501904 
	C83.520195,46.503807 79.277779,55.515118 75.030251,64.524002 
M96.304932,36.438988 
	C102.997475,38.721775 108.223717,37.413166 111.799355,32.559296 
	C114.927818,28.312477 114.970932,22.387114 111.776482,18.182600 
	C108.584267,13.981019 104.294975,12.065414 99.114471,13.286003 
	C94.035614,14.482645 90.659447,17.755043 89.639198,23.023106 
	C88.528152,28.759916 90.888374,32.992046 96.304932,36.438988 
z"/>
<path fill="#E0745D" opacity="1.000000" stroke="none" 
	d="
M158.223160,105.444054 
	C157.659073,105.020630 157.095001,104.597206 156.472702,104.004417 
	C162.340729,98.324226 168.266968,92.813393 173.856689,87.615501 
	C178.733292,92.631874 183.630234,97.669197 188.830460,103.018471 
	C183.266037,108.643288 176.780869,115.198853 170.008041,121.962982 
	C169.244675,121.700401 168.768967,121.229256 168.521332,120.330261 
	C170.380768,119.048363 172.012100,118.194305 173.643433,117.340248 
	C173.133636,116.784004 172.623840,116.227768 172.114059,115.671524 
	C170.428940,113.656410 168.743805,111.641296 167.058685,109.626183 
	C167.441483,109.226723 167.824265,108.827263 168.207062,108.427803 
	C170.398682,110.098518 172.590302,111.769241 175.037201,113.634560 
	C176.855927,112.078377 178.447983,110.716148 179.807129,109.553215 
	C178.563293,107.187447 177.811249,105.757072 177.059204,104.326691 
	C177.335297,104.108368 177.611404,103.890038 177.887512,103.671715 
	C179.393707,104.475235 180.899887,105.278755 182.614975,106.193718 
	C183.906204,104.797615 185.100830,103.505951 185.679993,102.879745 
	C181.744949,98.546051 178.117538,94.551178 174.347336,90.399033 
	C168.875488,95.504662 163.549316,100.474358 158.223160,105.444054 
z"/>
<path fill="#DF725B" opacity="1.000000" stroke="none" 
	d="
M42.860554,101.942421 
	C43.015499,102.704544 42.888313,103.268341 42.241455,103.856377 
	C37.026012,99.324989 32.330250,94.769363 28.241434,90.802574 
	C23.787563,95.013557 19.881361,98.706741 16.211447,102.176521 
	C17.599957,103.972984 18.985222,105.765251 20.284067,107.445709 
	C22.431738,106.041359 23.841698,105.119392 25.251659,104.197426 
	C25.578909,104.474808 25.906160,104.752182 26.233412,105.029564 
	C25.248686,106.636803 24.263958,108.244041 23.139963,110.078598 
	C24.892738,111.648163 26.544395,113.127174 28.102030,114.521996 
	C30.572895,112.621529 32.525230,111.119881 34.477570,109.618240 
	C34.771172,109.939934 35.064774,110.261627 35.358376,110.583328 
	C33.768597,112.687912 32.178822,114.792496 30.468199,117.057068 
	C32.256130,118.969994 33.827499,120.651215 35.398869,122.332436 
	C35.274246,122.830086 35.149624,123.327728 34.846466,124.018715 
	C27.608374,116.547218 20.548819,108.882385 13.455383,101.180763 
	C17.512150,97.345291 22.538261,92.593346 28.020153,87.410492 
	C32.527107,91.847893 37.552769,96.795998 42.860554,101.942421 
z"/>
<path fill="#EB8433" opacity="1.000000" stroke="none" 
	d="
M140.787369,82.479904 
	C139.540176,85.018845 138.083099,87.233047 136.186584,89.360535 
	C134.537354,87.238083 133.327545,85.202347 132.117752,83.166618 
	C132.047073,77.455284 131.976379,71.743942 131.940277,65.577248 
	C134.842407,70.799644 137.709946,76.477402 140.787369,82.479904 
z"/>
<path fill="#E06D64" opacity="1.000000" stroke="none" 
	d="
M164.965759,137.119766 
	C165.450684,137.067673 165.935608,137.015594 166.781113,137.035767 
	C169.784576,142.767685 172.427444,148.427338 175.070328,154.087006 
	C174.650482,154.313141 174.230652,154.539291 173.810806,154.765442 
	C167.728790,150.151672 161.026550,146.102280 158.898346,137.465851 
	C159.313766,137.064148 159.807098,137.016479 160.801819,137.357697 
	C165.562195,146.346481 165.562195,146.346481 168.893768,146.291199 
	C167.563934,143.186172 166.264847,140.152969 164.965759,137.119766 
z"/>
<path fill="#E06F67" opacity="1.000000" stroke="none" 
	d="
M43.233780,137.062607 
	C43.913887,137.015640 44.593990,136.968674 45.605080,137.002655 
	C41.770302,146.585281 38.305149,150.496887 29.105282,155.188797 
	C32.111214,148.632462 34.602200,143.199280 37.176361,137.410843 
	C37.708401,137.030899 38.157269,137.006210 38.865631,137.445923 
	C37.823002,141.073578 36.520874,144.236832 34.970600,148.002914 
	C39.954926,145.884872 41.407513,143.807007 43.233780,137.062607 
z"/>
<path fill="#FDFBFC" opacity="1.000000" stroke="none" 
	d="
M82.137901,74.224174 
	C83.857422,72.631752 86.211739,71.801811 87.184708,70.155502 
	C92.233330,61.612892 96.929459,52.861965 102.333290,43.130283 
	C106.299721,50.673100 109.796745,57.323269 113.359924,64.336197 
	C112.742416,65.591820 111.466011,66.481842 111.461716,67.377953 
	C111.351921,90.290733 111.375099,113.204155 111.375099,136.935181 
	C115.443069,136.935181 119.186142,136.935181 123.206436,137.299011 
	C115.982750,145.091492 108.481842,152.520142 101.493980,159.440704 
	C89.429710,147.715744 77.755424,136.369781 66.081131,125.023834 
	C67.399216,124.922501 68.716484,124.746277 70.035522,124.731773 
	C80.005707,124.622147 79.938286,124.659660 83.736427,133.951324 
	C84.228218,135.154434 85.809677,136.670502 86.948090,136.723816 
	C92.882210,137.001740 98.836304,136.853409 105.677017,136.853409 
	C97.681084,115.712318 89.908279,95.161186 82.137901,74.224174 
z"/>
<path fill="#FEFB02" opacity="1.000000" stroke="none" 
	d="
M153.856705,135.274689 
	C151.942719,134.732697 149.977829,133.884415 146.521072,132.392044 
	C148.163773,135.150040 149.062302,136.658600 150.306946,138.748306 
	C148.778564,140.033813 147.153656,141.400513 145.172058,143.067215 
	C143.131851,141.374603 140.969360,139.580551 138.806870,137.786499 
	C138.376450,138.170502 137.946045,138.554489 137.515625,138.938492 
	C139.219147,141.068115 140.922684,143.197754 143.121628,145.946732 
	C141.570618,147.174469 139.922028,148.479446 137.999420,150.001328 
	C136.833557,149.216034 135.405273,148.253983 133.976974,147.291916 
	C133.639130,147.489426 133.301300,147.686920 132.963455,147.884415 
	C133.673233,149.422913 134.383011,150.961395 135.643448,153.693512 
	C134.442429,154.784805 132.799988,156.277191 131.080795,157.839310 
	C128.411087,155.706970 126.326584,154.042053 124.242081,152.377136 
	C123.852394,152.752228 123.462700,153.127335 123.073006,153.502426 
	C124.742485,155.652344 126.411964,157.802246 128.506104,160.499023 
	C126.808319,162.074036 125.154396,163.608337 123.455032,165.184784 
	C121.745155,164.083115 120.310333,163.158646 118.875504,162.234177 
	C118.534492,162.502823 118.193481,162.771469 117.852470,163.040115 
	C118.760109,164.537903 119.667755,166.035690 120.924492,168.109573 
	C119.574272,169.381500 118.033211,170.833206 116.273460,172.490921 
	C113.820282,170.546707 111.614273,168.798386 109.408257,167.050064 
	C108.927353,167.494980 108.446449,167.939896 107.965546,168.384796 
	C109.643234,170.430756 111.320915,172.476730 113.412720,175.027710 
	C111.946304,176.601868 110.425278,178.234634 108.816605,179.961487 
	C107.259209,178.913940 105.950928,178.033951 104.642647,177.153961 
	C104.321823,177.361542 104.000999,177.569122 103.680176,177.776688 
	C104.353836,179.203720 105.027504,180.630768 106.101822,182.906540 
	C104.681595,184.057159 102.933182,185.473663 100.805702,187.197281 
	C99.627983,186.130234 98.327179,184.951660 96.837677,183.602112 
	C97.908188,181.885803 98.870087,180.343628 99.831985,178.801468 
	C99.566429,178.480011 99.300865,178.158554 99.035301,177.837097 
	C97.615059,178.642990 96.194809,179.448883 94.242233,180.556839 
	C92.761658,179.173508 91.152107,177.669678 89.345009,175.981277 
	C91.415932,173.445419 93.205139,171.254517 94.994347,169.063614 
	C94.627106,168.659180 94.259865,168.254730 93.892624,167.850281 
	C91.632988,169.604523 89.373344,171.358780 86.565392,173.538696 
	C85.332512,171.732468 84.127228,169.966675 82.741013,167.935822 
	C83.260345,167.139252 84.250763,165.620132 85.241180,164.101013 
	C84.953339,163.782059 84.665489,163.463089 84.377647,163.144135 
	C82.848175,164.059937 81.318695,164.975739 79.281624,166.195480 
	C77.760490,164.692459 76.157837,163.108871 74.362213,161.334625 
	C76.516739,158.811554 78.273560,156.754211 80.030380,154.696884 
	C79.693153,154.284042 79.355927,153.871216 79.018707,153.458374 
	C76.837692,155.033951 74.656685,156.609528 72.042427,158.498077 
	C70.595123,157.116928 69.087997,155.678680 67.450500,154.116028 
	C68.492714,152.261505 69.387589,150.669159 70.282471,149.076813 
	C69.965881,148.752380 69.649292,148.427948 69.332710,148.103500 
	C68.001862,149.043503 66.671013,149.983490 64.818504,151.291946 
	C63.286400,149.851166 61.664143,148.325592 59.868206,146.636703 
	C62.000694,144.277267 63.919247,142.154541 65.837799,140.031799 
	C65.458755,139.585571 65.079704,139.139343 64.700661,138.693100 
	C62.430000,140.405289 60.159344,142.117462 57.281734,144.287323 
	C55.839790,142.704742 54.332386,141.050339 52.637802,139.190491 
	C53.807201,137.727966 54.806686,136.477966 56.863552,133.905533 
	C54.495834,134.409531 53.510147,134.619339 52.185104,134.953552 
	C52.184246,133.829712 52.674088,132.600693 52.835163,131.329987 
	C53.551483,125.679184 56.674717,123.576469 62.748119,125.187477 
	C75.846413,138.055771 88.360718,150.534241 100.363907,162.503052 
	C109.472717,153.780228 118.193810,145.428696 126.914909,137.077179 
	C129.804596,137.057648 132.594070,136.923950 132.219635,132.201813 
	C136.417816,127.976875 140.237976,124.304031 144.058136,120.631187 
	C147.307358,125.410248 150.556580,130.189301 153.856705,135.274689 
z"/>
<path fill="#FEA303" opacity="1.000000" stroke="none" 
	d="
M116.611549,64.549454 
	C112.061607,56.736576 107.947815,49.039856 103.845322,41.364258 
	C107.574806,39.076645 111.026550,36.959396 115.309013,34.332596 
	C119.805321,44.024086 124.411316,53.952003 129.062073,64.227272 
	C125.087112,64.604950 121.067406,64.635277 116.611549,64.549454 
z"/>
<path fill="#FCF804" opacity="1.000000" stroke="none" 
	d="
M158.256134,105.792923 
	C163.549316,100.474358 168.875488,95.504662 174.347336,90.399033 
	C178.117538,94.551178 181.744949,98.546051 185.679993,102.879745 
	C185.100830,103.505951 183.906204,104.797615 182.614975,106.193718 
	C180.899887,105.278755 179.393707,104.475235 177.887512,103.671715 
	C177.611404,103.890038 177.335297,104.108368 177.059204,104.326691 
	C177.811249,105.757072 178.563293,107.187447 179.807129,109.553215 
	C178.447983,110.716148 176.855927,112.078377 175.037201,113.634560 
	C172.590302,111.769241 170.398682,110.098518 168.207062,108.427803 
	C167.824265,108.827263 167.441483,109.226723 167.058685,109.626183 
	C168.743805,111.641296 170.428940,113.656410 172.114059,115.671524 
	C172.623840,116.227768 173.133636,116.784004 173.643433,117.340248 
	C172.012100,118.194305 170.380768,119.048363 168.457062,120.085403 
	C164.872849,115.559517 161.580994,110.850655 158.256134,105.792923 
z"/>
<path fill="#E27852" opacity="1.000000" stroke="none" 
	d="
M126.531723,137.003418 
	C118.193810,145.428696 109.472717,153.780228 100.363907,162.503052 
	C88.360718,150.534241 75.846413,138.055771 63.185165,125.281754 
	C63.802082,124.942017 64.565948,124.897842 65.705475,124.938751 
	C77.755424,136.369781 89.429710,147.715744 101.493980,159.440704 
	C108.481842,152.520142 115.982750,145.091492 123.649414,137.394135 
	C124.592972,137.060150 125.370758,136.994904 126.531723,137.003418 
z"/>
<path fill="#F8F6F7" opacity="1.000000" stroke="none" 
	d="
M132.038589,128.892563 
	C132.038589,120.501595 132.038589,112.110626 132.038589,102.216187 
	C136.006561,108.217888 139.291824,113.186966 142.378387,118.635727 
	C138.799332,122.374451 135.418961,125.633507 132.038589,128.892563 
z"/>
<path fill="#FA9D0A" opacity="1.000000" stroke="none" 
	d="
M164.579102,137.025055 
	C166.264847,140.152969 167.563934,143.186172 168.893768,146.291199 
	C165.562195,146.346481 165.562195,146.346481 161.167969,137.429901 
	C162.085983,137.052246 163.139206,136.991287 164.579102,137.025055 
z"/>
<path fill="#DE7856" opacity="1.000000" stroke="none" 
	d="
M131.961090,129.270554 
	C135.418961,125.633507 138.799332,122.374451 142.469772,118.945152 
	C143.155655,119.203857 143.551468,119.632812 144.002716,120.346474 
	C140.237976,124.304031 136.417816,127.976875 132.305389,131.796432 
	C131.969940,131.178284 131.926758,130.413406 131.961090,129.270554 
z"/>
<path fill="#F2EBEC" opacity="1.000000" stroke="none" 
	d="
M131.992157,83.599533 
	C133.327545,85.202347 134.537354,87.238083 135.932968,89.541412 
	C135.062012,91.585640 134.005234,93.362259 132.948471,95.138878 
	C132.587830,95.073380 132.227188,95.007881 131.866547,94.942383 
	C131.866547,91.305733 131.866547,87.669090 131.992157,83.599533 
z"/>
<path fill="#FEA303" opacity="1.000000" stroke="none" 
	d="
M75.415222,64.614319 
	C79.277779,55.515118 83.520195,46.503807 87.782463,37.501904 
	C88.127052,36.774132 88.608002,36.110924 89.014908,35.435448 
	C92.239052,37.083073 95.384834,38.466557 98.247253,40.293903 
	C99.075127,40.822414 99.788620,42.995667 99.369385,43.787113 
	C94.784485,52.442608 90.018944,61.004959 85.127182,69.491577 
	C84.616119,70.378212 82.980003,70.616364 81.491486,71.198196 
	C79.256607,69.133934 80.466919,64.528992 75.415222,64.614319 
z"/>
<path fill="#FCF704" opacity="1.000000" stroke="none" 
	d="
M35.632812,122.081009 
	C33.827499,120.651215 32.256130,118.969994 30.468199,117.057068 
	C32.178822,114.792496 33.768597,112.687912 35.358376,110.583328 
	C35.064774,110.261627 34.771172,109.939934 34.477570,109.618240 
	C32.525230,111.119881 30.572895,112.621529 28.102030,114.521996 
	C26.544395,113.127174 24.892738,111.648163 23.139963,110.078598 
	C24.263958,108.244041 25.248686,106.636803 26.233412,105.029564 
	C25.906160,104.752182 25.578909,104.474808 25.251659,104.197426 
	C23.841698,105.119392 22.431738,106.041359 20.284067,107.445709 
	C18.985222,105.765251 17.599957,103.972984 16.211447,102.176521 
	C19.881361,98.706741 23.787563,95.013557 28.241434,90.802574 
	C32.330250,94.769363 37.026012,99.324989 42.037411,104.066422 
	C40.190945,110.111359 38.028851,115.970474 35.632812,122.081009 
z"/>
<path fill="#F2EFF1" opacity="1.000000" stroke="none" 
	d="
M61.741615,104.907654 
	C63.868446,99.449982 65.862610,94.386734 68.417046,87.900902 
	C70.920784,95.414055 73.030518,101.744904 75.302132,108.561508 
	C70.289116,108.561508 65.763916,108.561508 60.922031,108.561508 
	C61.152973,107.465683 61.380962,106.383881 61.741615,104.907654 
z"/>
<path fill="#FA9C0C" opacity="1.000000" stroke="none" 
	d="
M42.832191,136.978378 
	C41.407513,143.807007 39.954926,145.884872 34.970600,148.002914 
	C36.520874,144.236832 37.823002,141.073578 39.193047,137.547119 
	C40.317513,137.087326 41.374058,136.990738 42.832191,136.978378 
z"/>
<path fill="#261010" opacity="1.000000" stroke="none" 
	d="
M95.971878,36.260330 
	C90.888374,32.992046 88.528152,28.759916 89.639198,23.023106 
	C90.659447,17.755043 94.035614,14.482645 99.114471,13.286003 
	C104.294975,12.065414 108.584267,13.981019 111.776482,18.182600 
	C114.970932,22.387114 114.927818,28.312477 111.799355,32.559296 
	C108.223717,37.413166 102.997475,38.721775 95.971878,36.260330 
M95.139214,18.590744 
	C91.568375,22.321342 90.922859,26.750057 93.384895,30.626894 
	C95.838608,34.490643 100.851868,36.196201 105.190636,34.643326 
	C109.258812,33.187290 112.120209,28.667673 111.641136,24.454672 
	C111.109039,19.775375 107.584206,15.901597 102.921638,15.642262 
	C100.274124,15.495005 96.872826,14.872399 95.946999,18.955538 
	C95.946999,18.955538 95.868622,18.912552 95.139214,18.590744 
z"/>
<path fill="#D16262" opacity="1.000000" stroke="none" 
	d="
M95.905777,18.876553 
	C96.872826,14.872399 100.274124,15.495005 102.921638,15.642262 
	C107.584206,15.901597 111.109039,19.775375 111.641136,24.454672 
	C112.120209,28.667673 109.258812,33.187290 105.190636,34.643326 
	C100.851868,36.196201 95.838608,34.490643 93.384895,30.626894 
	C90.922859,26.750057 91.568375,22.321342 95.552231,19.133141 
	C95.462524,20.528105 94.811913,21.327480 94.482780,22.242491 
	C93.088501,26.118763 93.742874,30.040308 97.426956,31.653944 
	C99.989037,32.776146 103.976898,32.646023 106.485268,31.391190 
	C109.768677,29.748638 110.634178,25.992792 109.016739,22.300434 
	C107.312309,18.409451 104.160156,17.103525 100.123268,17.756460 
	C98.694427,17.987564 97.310310,18.495176 95.905777,18.876553 
z"/>
<path fill="#FEF8F8" opacity="1.000000" stroke="none" 
	d="
M95.926392,18.916046 
	C97.310310,18.495176 98.694427,17.987564 100.123268,17.756460 
	C104.160156,17.103525 107.312309,18.409451 109.016739,22.300434 
	C110.634178,25.992792 109.768677,29.748638 106.485268,31.391190 
	C103.976898,32.646023 99.989037,32.776146 97.426956,31.653944 
	C93.742874,30.040308 93.088501,26.118763 94.482780,22.242491 
	C94.811913,21.327480 95.462524,20.528105 95.916931,19.294044 
	C95.868622,18.912552 95.946999,18.955538 95.926392,18.916046 
z"/>
</svg>