<?xml version="1.0" standalone="no"?>
<!DOCTYPE svg PUBLIC "-//W3C//DTD SVG 20010904//EN"
 "http://www.w3.org/TR/2001/REC-SVG-20010904/DTD/svg10.dtd">
<svg version="1.0" xmlns="http://www.w3.org/2000/svg"
 width="577.000000pt" height="433.000000pt" viewBox="0 0 577.000000 433.000000"
 preserveAspectRatio="xMidYMid meet">

<g transform="translate(0.000000,433.000000) scale(0.100000,-0.100000)"
fill="#000000" stroke="none">
<path d="M1161 2629 c-16 -15 -21 -29 -18 -48 4 -17 -16 -75 -60 -181 -122
-291 -113 -273 -131 -257 -8 6 -24 10 -35 9 -12 -2 -47 2 -79 9 -96 20 -97 3
-4 -90 l78 -78 -27 -64 c-15 -35 -38 -88 -51 -116 -29 -65 -38 -99 -29 -113
12 -20 30 6 80 117 27 60 53 114 59 121 7 10 42 -20 148 -125 l138 -138 140
140 c118 118 140 136 146 119 21 -58 114 -244 123 -244 25 0 18 29 -33 153
-31 74 -56 137 -56 142 0 5 35 44 78 88 71 74 76 81 56 89 -14 7 -38 5 -74 -6
-34 -10 -58 -12 -69 -7 -11 7 -21 5 -34 -6 -9 -9 -19 -14 -20 -12 -2 2 -42 96
-90 209 -57 134 -87 218 -87 242 0 27 -6 41 -22 52 -33 23 -99 20 -127 -5z
m103 0 c14 -7 28 -19 31 -27 7 -20 -23 -52 -49 -52 -19 1 -19 2 -3 11 23 13
22 46 -2 59 -15 7 -23 6 -35 -6 -20 -19 -20 -29 0 -48 20 -21 -3 -22 -30 -3
-24 18 -17 48 14 64 31 16 43 16 74 2z m-19 -39 c0 -22 -29 -18 -33 3 -3 14 1
18 15 15 10 -2 18 -10 18 -18z m-116 -170 c-26 -59 -51 -119 -55 -133 l-6 -26
41 22 c33 18 45 33 62 77 23 57 39 83 46 76 2 -2 -7 -28 -20 -57 -13 -30 -27
-62 -30 -71 -3 -9 -23 -26 -44 -36 -62 -32 -61 -32 -185 -302 -71 -156 -112
-240 -115 -236 -3 2 5 26 17 53 30 65 35 77 140 328 103 245 111 265 133 315
8 19 23 54 33 78 10 27 20 39 24 32 4 -7 -14 -61 -41 -120z m200 40 c17 -44
42 -104 55 -132 27 -59 240 -563 250 -591 3 -11 2 -16 -4 -12 -6 3 -10 10 -10
15 0 5 -27 65 -60 135 -33 70 -60 128 -60 130 0 2 -25 56 -56 120 -52 108 -60
118 -104 143 -35 19 -51 36 -60 62 -7 19 -26 63 -41 97 -16 34 -31 73 -34 86
-6 22 -4 24 18 20 14 -3 33 0 43 5 10 6 22 8 26 6 4 -2 21 -40 37 -84z m-129
24 c0 -30 -62 -165 -81 -175 -26 -13 -24 -3 12 77 17 37 35 78 40 91 10 26 29
31 29 7z m60 -146 c24 -53 36 -67 73 -86 37 -19 50 -35 76 -88 17 -35 31 -69
31 -76 0 -8 -47 -60 -105 -118 l-105 -105 -110 111 -111 110 32 68 c27 57 41
74 81 99 39 24 54 42 75 89 14 32 28 58 30 58 2 0 17 -28 33 -62z m-353 -202
c51 -2 58 -17 35 -70 -16 -34 -25 -44 -37 -40 -12 5 -13 10 -6 17 17 17 13 31
-4 17 -21 -17 -31 -5 -14 17 11 15 11 16 -1 6 -22 -20 -32 -15 -24 9 6 19 5
21 -8 11 -11 -10 -20 -6 -43 19 l-30 31 50 -8 c28 -4 64 -9 82 -9z m741 -15
c-13 -17 -29 -28 -35 -26 -7 2 -12 -1 -10 -8 1 -7 -6 -11 -17 -9 -18 3 -18 2
-5 -14 13 -16 12 -17 -8 -12 -14 4 -20 2 -17 -6 2 -6 -1 -18 -6 -26 -12 -18
-21 -7 -40 51 -17 50 -3 70 44 62 19 -3 42 0 52 6 11 6 29 11 42 11 l24 0 -24
-29z m-305 -163 l113 113 20 -49 c18 -41 19 -52 8 -67 -7 -10 -20 -15 -28 -12
-11 4 -13 1 -9 -10 5 -12 1 -14 -18 -8 -21 7 -22 6 -10 -9 12 -14 11 -19 -5
-31 -10 -8 -24 -13 -31 -10 -8 2 -10 -2 -6 -12 5 -13 2 -15 -11 -10 -14 6 -17
3 -12 -8 3 -9 -3 -24 -13 -34 -16 -16 -21 -17 -35 -5 -9 8 -11 9 -6 2 17 -20
11 -30 -12 -22 -19 6 -21 5 -11 -8 17 -19 4 -31 -16 -16 -13 10 -14 10 -3 -2
20 -23 14 -28 -28 -26 -43 1 -47 4 -27 26 10 13 10 13 -2 3 -22 -19 -33 -16
-26 6 5 16 2 18 -17 13 -21 -5 -22 -4 -8 13 14 17 13 18 -3 12 -23 -9 -51 18
-43 40 6 14 4 14 -11 2 -15 -13 -16 -12 -10 9 4 17 2 22 -8 18 -20 -7 -27 5
-12 22 10 13 9 14 -12 3 -22 -12 -23 -12 -19 7 5 16 2 18 -16 14 -19 -5 -20
-4 -6 13 14 16 13 17 -7 11 -37 -12 -47 23 -22 79 l21 48 114 -114 114 -114
113 113z m-103 -238 c0 -5 -4 -10 -10 -10 -5 0 -10 5 -10 10 0 6 5 10 10 10 6
0 10 -4 10 -10z"/>
<path d="M1233 2513 c-8 -6 1 -36 30 -105 35 -81 49 -102 81 -123 21 -14 40
-24 42 -22 3 2 -19 60 -49 128 -53 124 -70 144 -104 122z m80 -103 c42 -101
45 -115 21 -102 -9 5 -30 40 -46 78 -50 116 -50 114 -30 114 12 0 28 -26 55
-90z"/>
<path d="M1390 1900 c0 -5 5 -10 11 -10 5 0 7 5 4 10 -3 6 -8 10 -11 10 -2 0
-4 -4 -4 -10z"/>
<path d="M2360 2206 l0 -316 63 3 62 2 0 310 0 310 -62 3 -63 3 0 -315z"/>
<path d="M2572 2208 l3 -313 62 -3 62 -3 3 102 3 102 68 -100 68 -101 73 2
c83 1 83 -1 24 77 -19 24 -49 67 -69 95 l-36 50 44 55 c46 56 103 135 103 141
0 3 -32 3 -71 2 l-70 -2 -67 -93 -67 -93 -3 197 -2 197 -65 0 -65 0 2 -312z"/>
<path d="M3934 2502 c-39 -26 -38 -92 2 -118 29 -19 80 -10 94 16 16 29 12 75
-8 93 -19 17 -68 22 -88 9z"/>
<path d="M4137 2492 c-19 -21 -22 -64 -7 -92 14 -26 65 -35 94 -16 40 26 41
92 2 118 -21 14 -73 8 -89 -10z"/>
<path d="M1922 2437 c-13 -34 -32 -82 -42 -107 -35 -81 -170 -427 -170 -434 0
-12 127 -6 137 7 5 6 15 31 23 55 l13 42 122 0 122 0 19 -52 19 -53 68 -1 c49
0 67 3 67 13 0 10 -55 156 -90 238 -5 11 -37 90 -70 175 -34 85 -64 161 -67
168 -3 8 -27 12 -67 12 l-61 0 -23 -63z m126 -210 c17 -52 32 -99 32 -105 0
-8 -24 -12 -75 -12 -45 0 -75 4 -75 10 0 6 11 36 24 68 13 31 29 74 36 95 6
20 15 37 18 37 4 0 22 -42 40 -93z"/>
<path d="M3113 2295 c-21 -11 -51 -40 -68 -63 -28 -41 -30 -50 -30 -130 0 -78
3 -91 27 -129 30 -46 72 -72 131 -83 38 -7 111 5 133 22 7 5 14 3 17 -6 4 -10
22 -14 64 -12 l58 1 0 210 0 210 -60 -4 c-33 -2 -62 -7 -65 -12 -3 -4 -25 -1
-49 7 -56 19 -112 15 -158 -11z m180 -115 c71 -56 26 -180 -65 -180 -42 0 -79
41 -85 92 -5 42 -3 50 25 78 37 36 86 40 125 10z"/>
<path d="M3567 2312 l-37 -3 2 -207 3 -207 65 0 65 0 2 134 c3 161 10 176 83
169 44 -4 46 -3 83 44 l39 48 -36 15 c-45 19 -99 19 -136 0 -20 -10 -30 -11
-32 -4 -4 12 -40 16 -101 11z"/>
<path d="M4182 2313 l-62 -4 2 -207 3 -207 63 -3 62 -3 0 216 c0 118 -1 214
-2 213 -2 -1 -31 -3 -66 -5z"/>
<path d="M4340 2104 l0 -212 59 0 59 0 4 133 c3 150 14 175 72 175 58 0 61 -6
66 -162 l5 -143 65 0 65 0 3 140 c3 155 7 165 67 165 56 0 64 -20 67 -170 l3
-135 63 -3 62 -3 0 158 c0 135 -3 163 -19 193 -39 74 -156 101 -239 55 l-43
-24 -37 26 c-33 22 -44 24 -97 19 -32 -3 -64 -11 -69 -16 -14 -14 -36 -12 -36
3 0 8 -19 12 -60 12 l-60 0 0 -211z"/>
<path d="M3910 2100 l0 -210 65 0 65 0 0 210 0 210 -65 0 -65 0 0 -210z"/>
</g>
</svg>
